<svg height="480pt" viewBox="0 0 480 480" width="480pt" xmlns="http://www.w3.org/2000/svg"><path d="m440 208c-11.386719.023438-21.894531 6.125-27.558594 16h-45.546875c-2.867187-22.738281-11.824219-44.277344-25.925781-62.34375l32.277344-32.273438c13.992187 3.746094 28.753906-2.367187 35.996094-14.910156 7.238281-12.542968 5.152343-28.386718-5.089844-38.625-10.238282-10.242187-26.082032-12.328125-38.625-5.089844-12.542969 7.242188-18.65625 22.003907-14.910156 35.996094l-32.273438 32.277344c-18.066406-14.101562-39.605469-23.058594-62.34375-25.925781v-45.546875c12.542969-7.242188 18.65625-22.003906 14.910156-35.992188-3.75-13.992187-16.425781-23.71875-30.910156-23.71875s-27.160156 9.726563-30.910156 23.71875c-3.746094 13.988282 2.367187 28.75 14.910156 35.992188v45.546875c-22.738281 2.867187-44.277344 11.824219-62.34375 25.925781l-32.273438-32.277344c3.746094-13.992187-2.367187-28.753906-14.910156-35.996094-12.542968-7.238281-28.386718-5.152343-38.625 5.089844-10.242187 10.238282-12.328125 26.082032-5.089844 38.625 7.242188 12.542969 22.003907 18.65625 35.996094 14.910156l32.277344 32.273438c-14.101562 18.066406-23.058594 39.605469-25.925781 62.34375h-45.546875c-7.242188-12.542969-22.003906-18.65625-35.992188-14.910156-13.992187 3.75-23.71875 16.425781-23.71875 30.910156s9.726563 27.160156 23.71875 30.910156c13.988282 3.746094 28.75-2.367187 35.992188-14.910156h45.546875c2.867187 22.738281 11.824219 44.277344 25.925781 62.34375l-32.277344 32.273438c-13.992187-3.746094-28.753906 2.367187-35.996094 14.910156-7.238281 12.542968-5.152343 28.386718 5.089844 38.625 10.238282 10.242187 26.082032 12.328125 38.625 5.089844 12.542969-7.242188 18.65625-22.003907 14.910156-35.996094l32.273438-32.277344c18.066406 14.101562 39.605469 23.058594 62.34375 25.925781v45.546875c-12.542969 7.242188-18.65625 22.003906-14.910156 35.992188 3.75 13.992187 16.425781 23.71875 30.910156 23.71875s27.160156-9.726563 30.910156-23.71875c3.746094-13.988282-2.367187-28.75-14.910156-35.992188v-45.546875c22.738281-2.867187 44.277344-11.824219 62.34375-25.925781l32.273438 32.277344c-3.746094 13.992187 2.367187 28.753906 14.910156 35.996094 12.542968 7.238281 28.386718 5.152343 38.625-5.089844 10.242187-10.238282 12.328125-26.082032 5.089844-38.625-7.242188-12.542969-22.003907-18.65625-35.996094-14.910156l-32.277344-32.273438c14.101562-18.066406 23.058594-39.605469 25.925781-62.34375h45.546875c7.789063 13.398438 24.070313 19.269531 38.617188 13.933594 14.550781-5.339844 23.167968-20.347656 20.445312-35.605469-2.726562-15.253906-16.007812-26.355469-31.503906-26.328125zm0 0" fill="#ea4a3b"/><path d="m440 208c-11.386719.023438-21.894531 6.125-27.558594 16h-45.546875c-2.867187-22.738281-11.824219-44.277344-25.925781-62.34375l32.277344-32.273438c13.234375 3.5625 27.265625-1.71875 34.859375-13.125s7.058593-26.390624-1.328125-37.226562c-8.390625-10.835938-22.761719-15.105469-35.707032-10.605469-26.460937 128.117188-143.773437 203.460938-236.429687 243.878907 1.414063 2.046874 2.863281 4.070312 4.390625 6.039062l-32.277344 32.273438c-13.992187-3.746094-28.753906 2.367187-35.996094 14.910156-7.238281 12.542968-5.152343 28.386718 5.089844 38.625 10.238282 10.242187 26.082032 12.328125 38.625 5.089844 12.542969-7.242188 18.65625-22.003907 14.910156-35.996094l32.273438-32.277344c18.066406 14.101562 39.605469 23.058594 62.34375 25.925781v45.546875c-12.542969 7.242188-18.65625 22.003906-14.910156 35.992188 3.75 13.992187 16.425781 23.71875 30.910156 23.71875s27.160156-9.726563 30.910156-23.71875c3.746094-13.988282-2.367187-28.75-14.910156-35.992188v-45.546875c22.738281-2.867187 44.277344-11.824219 62.34375-25.925781l32.273438 32.277344c-3.746094 13.992187 2.367187 28.753906 14.910156 35.996094 12.542968 7.238281 28.386718 5.152343 38.625-5.089844 10.242187-10.238282 12.328125-26.082032 5.089844-38.625-7.242188-12.542969-22.003907-18.65625-35.996094-14.910156l-32.277344-32.273438c14.101562-18.066406 23.058594-39.605469 25.925781-62.34375h45.546875c7.789063 13.398438 24.070313 19.269531 38.617188 13.933594 14.550781-5.339844 23.167968-20.347656 20.445312-35.605469-2.726562-15.253906-16.007812-26.355469-31.503906-26.328125zm0 0" fill="#de4132"/><g fill="#fc685b"><path d="m264 176c0 13.253906-10.746094 24-24 24s-24-10.746094-24-24 10.746094-24 24-24 24 10.746094 24 24zm0 0"/><path d="m264 304c0 13.253906-10.746094 24-24 24s-24-10.746094-24-24 10.746094-24 24-24 24 10.746094 24 24zm0 0"/><path d="m192 240c0 13.253906-10.746094 24-24 24s-24-10.746094-24-24 10.746094-24 24-24 24 10.746094 24 24zm0 0"/><path d="m336 240c0 13.253906-10.746094 24-24 24s-24-10.746094-24-24 10.746094-24 24-24 24 10.746094 24 24zm0 0"/></g><path d="m440 200c-12.558594-.03125-24.386719 5.910156-31.863281 16h-34.402344c-3.4375-19.269531-11.027344-37.558594-22.238281-53.601562l24.351562-24.34375c17.042969 2.433593 33.734375-6.308594 41.433594-21.710938 7.699219-15.398438 4.679688-33.996094-7.496094-46.171875-12.171875-12.171875-30.769531-15.191406-46.171875-7.492187-15.398437 7.699218-24.144531 24.386718-21.710937 41.433593l-24.300782 24.359375c-16.042968-11.210937-34.332031-18.800781-53.601562-22.242187v-34.398438c10.082031-7.472656 16.019531-19.285156 16-31.832031 0-22.089844-17.910156-40-40-40s-40 17.910156-40 40c-.03125 12.558594 5.910156 24.386719 16 31.863281v34.402344c-19.269531 3.4375-37.558594 11.027344-53.601562 22.238281l-24.34375-24.351562c2.433593-17.042969-6.308594-33.734375-21.710938-41.433594-15.398438-7.699219-33.996094-4.679688-46.171875 7.496094-12.171875 12.171875-15.191406 30.769531-7.492187 46.171875 7.699218 15.398437 24.386718 24.144531 41.433593 21.710937l24.359375 24.300782c-11.210937 16.042968-18.800781 34.332031-22.242187 53.601562h-34.398438c-7.472656-10.082031-19.285156-16.019531-31.832031-16-22.089844 0-40 17.910156-40 40s17.910156 40 40 40c12.558594.03125 24.386719-5.910156 31.863281-16h34.402344c3.4375 19.269531 11.027344 37.558594 22.238281 53.601562l-24.351562 24.34375c-17.042969-2.433593-33.734375 6.308594-41.433594 21.710938-7.699219 15.398438-4.679688 33.996094 7.496094 46.171875 12.171875 12.171875 30.769531 15.191406 46.171875 7.492187 15.398437-7.699218 24.144531-24.386718 21.710937-41.433593l24.300782-24.359375c16.042968 11.210937 34.332031 18.800781 53.601562 22.242187v34.398438c-10.082031 7.472656-16.019531 19.285156-16 31.832031 0 22.089844 17.910156 40 40 40s40-17.910156 40-40c.03125-12.558594-5.910156-24.386719-16-31.863281v-34.402344c19.269531-3.4375 37.558594-11.027344 53.601562-22.238281l24.34375 24.351562c-2.433593 17.042969 6.308594 33.734375 21.710938 41.433594 15.398438 7.699219 33.996094 4.679688 46.171875-7.496094 12.171875-12.171875 15.191406-30.769531 7.492187-46.171875-7.699218-15.398437-24.386718-24.144531-41.433593-21.710937l-24.359375-24.300782c11.210937-16.042968 18.800781-34.332031 22.242187-53.601562h34.398438c7.472656 10.082031 19.285156 16.019531 31.832031 16 22.089844 0 40-17.910156 40-40s-17.910156-40-40-40zm0 64c-8.5625-.023438-16.457031-4.621094-20.703125-12.054688-1.4375-2.445312-4.0625-3.945312-6.898437-3.945312h-45.519532c-4.039062.003906-7.441406 3.015625-7.933594 7.023438-2.28125 18.253906-8.765624 35.726562-18.945312 51.046874l-11.847656-11.847656-11.320313 11.3125 50.742188 50.738282c2.015625 2.011718 4.945312 2.804687 7.699219 2.078124 10.472656-2.839843 21.546874 1.726563 26.976562 11.125 5.425781 9.398438 3.847656 21.269532-3.851562 28.921876-9.496094 9.066406-24.4375 9.066406-33.933594 0-6.046875-6.039063-8.378906-14.863282-6.105469-23.101563.726563-2.753906-.066406-5.683594-2.078125-7.695313l-50.738281-50.746093-11.3125 11.320312 11.839843 11.824219c-15.320312 10.175781-32.792968 16.652344-51.046874 18.929688-4.015626.492187-7.03125 3.90625-7.023438 7.949218v45.519532c0 2.835937 1.5 5.460937 3.945312 6.898437 9.429688 5.410156 14.046876 16.488281 11.246094 26.996094-2.800781 10.507812-12.316406 17.820312-23.191406 17.820312s-20.390625-7.3125-23.191406-17.820312c-2.800782-10.507813 1.816406-21.585938 11.246094-26.996094 2.445312-1.4375 3.945312-4.0625 3.945312-6.898437v-45.519532c-.003906-4.039062-3.015625-7.441406-7.023438-7.933594-18.253906-2.28125-35.726562-8.765624-51.046874-18.945312l11.847656-11.847656-11.3125-11.320313-50.738282 50.742188c-2.011718 2.015625-2.804687 4.945312-2.078124 7.699219 2.273437 8.238281-.058594 17.0625-6.105469 23.101562-9.496094 9.066406-24.4375 9.066406-33.933594 0-7.707031-7.640625-9.300781-19.519531-3.875-28.917969 5.425781-9.402343 16.503906-13.96875 26.976563-11.121093 2.753906.726562 5.683593-.066407 7.695312-2.078126l50.746094-50.738281-11.320313-11.3125-11.832031 11.863281c-10.175781-15.320312-16.652344-32.792968-18.929688-51.046874-.492187-4.015626-3.90625-7.03125-7.949218-7.023438h-45.519532c-2.835937 0-5.460937 1.5-6.898437 3.945312-5.410156 9.429688-16.488281 14.046876-26.996094 11.246094-10.507812-2.800781-17.820312-12.316406-17.820312-23.191406s7.3125-20.390625 17.820312-23.191406c10.507813-2.800782 21.585938 1.816406 26.996094 11.246094 1.4375 2.445312 4.0625 3.945312 6.898437 3.945312h45.519532c4.039062-.003906 7.441406-3.015625 7.933594-7.023438 2.28125-18.253906 8.765624-35.726562 18.945312-51.046874l11.847656 11.847656 11.320313-11.3125-50.742188-50.738282c-2.015625-2.011718-4.945312-2.804687-7.699219-2.078124-10.449218 2.785156-21.464843-1.785157-26.875-11.148438-5.410156-9.363281-3.863281-21.191406 3.773438-28.851562 9.496094-9.0625 24.4375-9.0625 33.933594 0 6.046875 6.039062 8.378906 14.863281 6.105468 23.105468-.726562 2.75.066407 5.679688 2.078126 7.695313l50.738281 50.742187 11.3125-11.320312-11.863281-11.871094c15.320312-10.175781 32.792968-16.652344 51.046874-18.929688 4.015626-.492187 7.03125-3.90625 7.023438-7.949218v-45.519532c0-2.835937-1.5-5.460937-3.945312-6.898437-9.429688-5.410156-14.046876-16.488281-11.246094-26.996094 2.800781-10.507812 12.316406-17.820312 23.191406-17.820312s20.390625 7.3125 23.191406 17.820312c2.800782 10.507813-1.816406 21.585938-11.246094 26.996094-2.445312 1.4375-3.945312 4.0625-3.945312 6.898437v45.519532c.003906 4.039062 3.015625 7.441406 7.023438 7.933594 18.253906 2.28125 35.726562 8.765624 51.046874 18.945312l-11.847656 11.847656 11.3125 11.320313 50.738282-50.742188c2.011718-2.015625 2.804687-4.945312 2.078124-7.699219-2.273437-8.238281.058594-17.0625 6.105469-23.101562 9.496094-9.066406 24.4375-9.066406 33.933594 0 7.667969 7.648438 9.230469 19.496094 3.8125 28.875-5.414063 9.375-16.457031 13.941406-26.914063 11.125-2.753906-.738281-5.691406.054688-7.695312 2.078125l-50.746094 50.738281 11.320313 11.3125 11.832031-11.824218c10.175781 15.320312 16.652344 32.792968 18.929688 51.046874.492187 4.015626 3.90625 7.03125 7.949218 7.023438h45.519532c2.835937 0 5.460937-1.5 6.898437-3.945312 5.816406-10.070313 18.03125-14.511719 28.957031-10.523438 10.929688 3.988281 17.414063 15.246094 15.378906 26.699219-2.03125 11.453125-12 19.789062-23.632812 19.769531zm0 0"/><path d="m240 144c-17.671875 0-32 14.328125-32 32s14.328125 32 32 32 32-14.328125 32-32-14.328125-32-32-32zm0 48c-8.835938 0-16-7.164062-16-16s7.164062-16 16-16 16 7.164062 16 16-7.164062 16-16 16zm0 0"/><path d="m240 272c-17.671875 0-32 14.328125-32 32s14.328125 32 32 32 32-14.328125 32-32-14.328125-32-32-32zm0 48c-8.835938 0-16-7.164062-16-16s7.164062-16 16-16 16 7.164062 16 16-7.164062 16-16 16zm0 0"/><path d="m168 208c-17.671875 0-32 14.328125-32 32s14.328125 32 32 32 32-14.328125 32-32-14.328125-32-32-32zm0 48c-8.835938 0-16-7.164062-16-16s7.164062-16 16-16 16 7.164062 16 16-7.164062 16-16 16zm0 0"/><path d="m312 208c-17.671875 0-32 14.328125-32 32s14.328125 32 32 32 32-14.328125 32-32-14.328125-32-32-32zm0 48c-8.835938 0-16-7.164062-16-16s7.164062-16 16-16 16 7.164062 16 16-7.164062 16-16 16zm0 0"/></svg>